<svg xmlns="http://www.w3.org/2000/svg" width="200.001" height="60" viewBox="0 0 200.001 60">
  <g id="Сгруппировать_24" data-name="Сгруппировать 24" transform="translate(-189.912 -336.261)">
    <g id="Сгруппировать_20" data-name="Сгруппировать 20">
      <path id="Контур_24" data-name="Контур 24" d="M270.561,375.823v19.92h-9.694V377.375c0-5.626-2.423-8.213-6.338-8.213-4.349,0-7.394,2.91-7.394,9.119v17.462h-9.694V377.375c0-5.626-2.3-8.213-6.338-8.213-4.287,0-7.332,2.91-7.332,9.119v17.462h-9.693v-34.8h9.258v4.01a13.288,13.288,0,0,1,10.5-4.527c4.661,0,8.637,1.876,11,5.691a14.8,14.8,0,0,1,12.055-5.691C264.844,360.431,270.561,365.217,270.561,375.823Z" fill="#0f534f"/>
      <path id="Контур_25" data-name="Контур 25" d="M308.831,375.888v19.855h-9.072V391.41c-1.8,3.169-5.282,4.851-10.19,4.851-7.83,0-12.49-4.527-12.49-10.542,0-6.144,4.163-10.413,14.354-10.413h7.7c0-4.333-2.486-6.855-7.7-6.855a15.658,15.658,0,0,0-9.632,3.233l-3.479-7.049c3.666-2.717,9.072-4.2,14.416-4.2C302.928,360.431,308.831,365.346,308.831,375.888Zm-9.693,8.861v-3.558h-6.649c-4.536,0-5.965,1.747-5.965,4.075,0,2.522,2.05,4.2,5.468,4.2A7.134,7.134,0,0,0,299.138,384.749Z" fill="#0f534f"/>
      <path id="Контур_26" data-name="Контур 26" d="M331.942,382.1l-4.66,4.786v8.86h-9.693V347.755h9.693v27.163l14.168-13.97h11.557l-13.919,14.746,15.162,20.049H342.506Z" fill="#0f534f"/>
      <path id="Контур_27" data-name="Контур 27" d="M389.727,381.191H364.436c.933,4.334,4.474,6.985,9.57,6.985a11.092,11.092,0,0,0,8.388-3.363l5.158,5.821c-3.107,3.686-7.767,5.627-13.8,5.627-11.557,0-19.076-7.567-19.076-17.915,0-10.413,7.643-17.915,17.834-17.915,9.817,0,17.4,6.855,17.4,18.044C389.913,379.251,389.789,380.351,389.727,381.191Zm-25.415-5.885h16.467c-.684-4.4-3.853-7.243-8.2-7.243A8.014,8.014,0,0,0,364.312,375.306Z" fill="#0f534f"/>
    </g>
    <g id="Сгруппировать_21" data-name="Сгруппировать 21">
      <rect id="Прямоугольник_49" data-name="Прямоугольник 49" width="5.061" height="8.03" transform="translate(191.624 341.551) rotate(-45)" fill="#ffe600"/>
      <rect id="Прямоугольник_50" data-name="Прямоугольник 50" width="8.032" height="5.06" transform="matrix(0.334, -0.943, 0.943, 0.334, 205.587, 343.831)" fill="#ffe600"/>
      <rect id="Прямоугольник_51" data-name="Прямоугольник 51" width="8.032" height="5.06" transform="translate(189.912 354.619) rotate(-19.528)" fill="#ffe600"/>
      <path id="Контур_28" data-name="Контур 28" d="M201.535,347.882l1.093,5.386,3.045,15,4.959-1.008-2.618-12.9,12.9,2.618,1.008-4.96-15-3.044Z" fill="#ffe600"/>
    </g>
  </g>
</svg>
